<svg width="416" height="357" viewBox="0 0 416 357" fill="none" xmlns="http://www.w3.org/2000/svg">
<path d="M59.4286 0H0V59.5H59.4286V0Z" fill="#00C777"/>
<path d="M416.001 0H356.572V59.5H416.001V0Z" fill="#00C777"/>
<path d="M178.286 178.5H118.857V238H178.286V178.5Z" fill="#00C777"/>
<path d="M297.143 178.5H237.715V238H297.143V178.5Z" fill="#00C777"/>
<path d="M59.4286 238H0V297.5H59.4286V238Z" fill="#00C777"/>
<path d="M237.714 238H178.286L178.285 297.5H237.714V238Z" fill="#00C777"/>
<path d="M118.856 297.5H59.4286V238H0V59.5H59.4286V0H118.856V297.5Z" fill="#4BF678"/>
<path d="M356.571 297.5H297.143L297.143 178.5H237.715V59.5H297.143V0H356.572L356.571 297.5Z" fill="#4BF678"/>
<path d="M178.286 119H237.714L237.714 238H178.286V178.5H118.857V59.5H178.286V119Z" fill="#4BF678"/>
<path d="M416.001 238H356.572V59.5H416.001L416.001 238Z" fill="#4BF678"/>
<path d="M416.001 238H356.572L356.571 297.5H416.001L416.001 238Z" fill="#00C777"/>
<path d="M59.4286 297.5H0V357H59.4286V297.5Z" fill="#C0FFA6"/>
<path d="M118.856 297.5H59.4286V357H118.856L118.856 297.5Z" fill="#00C777"/>
<path d="M356.571 297.5H297.143V357H356.571L356.571 297.5Z" fill="#00C777"/>
<path d="M416.001 297.5H356.571L356.572 357H416.001V297.5Z" fill="#C0FFA6"/>
</svg>
