<svg width="7" height="6" viewBox="0 0 7 6" fill="none" xmlns="http://www.w3.org/2000/svg">
<path d="M2 1H3V2H4V1H5V0H7V6H5V4H4V5H3V4H2V6H0V0H2V1Z" fill="#4BF678"/>
<path d="M3 4H4V5H3V4Z" fill="#00C777"/>
<path d="M2 3H3V4H2V3Z" fill="#00C777"/>
<path d="M4 3H5V4H4V3Z" fill="#00C777"/>
<path d="M7 6H5V5H6V4H7V6Z" fill="#00C777"/>
<path d="M0 6H2V5H1V4H0V6Z" fill="#00C777"/>
<path d="M6 5H7V6H6V5Z" fill="#C0FFA6"/>
<path d="M6 0H7V1H6V0Z" fill="#00C777"/>
<path d="M0 5H1V6H0V5Z" fill="#C0FFA6"/>
<path d="M0 0H1V1H0V0Z" fill="#00C777"/>
</svg>
