<svg width="8" height="8" viewBox="0 0 8 8" fill="currentColor" xmlns="http://www.w3.org/2000/svg">
  <path d="M5 5V6H3V5H5Z" fill="currentColor" />
  <path d="M6 5H5V3H6V5Z" fill="currentColor" />
  <path d="M5 2V3H3V2H5Z" fill="currentColor" />
  <path d="M3 5H2V3H3V5Z" fill="currentColor" />
  <path d="M4 7H5V8H4V7Z" fill="currentColor" />
  <path d="M6 6H7V7H6V6Z" fill="currentColor" />
  <path d="M7 3H8V4H7V3Z" fill="currentColor" />
  <path d="M6 1H7V2H6V1Z" fill="currentColor" />
  <path d="M3 0H4V1H3V0Z" fill="currentColor" />
  <path d="M1 1H2V2H1V1Z" fill="currentColor" />
  <path d="M0 4H1V5H0V4Z" fill="currentColor" />
  <path d="M1 6H2V7H1V6Z" fill="currentColor" />
</svg>